<?xml version="1.0" encoding="UTF-8"?>
<svg id="Layer_2" data-name="Layer 2" xmlns="http://www.w3.org/2000/svg" viewBox="0 0 68.64 47.38">
  <defs>
    <style>
      .cls-1 {
        fill: #1da5de;
        stroke-width: 0px;
      }
    </style>
  </defs>
  <g id="Layer_1-2" data-name="Layer 1">
    <g>
      <path class="cls-1" d="M7.46,47.3h-2.03l-3.4-5.26v5.26H0v-8.36h2.03l3.4,5.26v-5.26h2.03v8.36Z"/>
      <path class="cls-1" d="M13.97,41.01c.53.27.94.67,1.25,1.18.31.51.46,1.11.46,1.79s-.15,1.28-.46,1.79c-.3.52-.72.91-1.24,1.19-.52.28-1.1.42-1.75.42s-1.23-.14-1.76-.42c-.53-.28-.95-.68-1.26-1.19-.31-.51-.46-1.11-.46-1.79s.15-1.28.46-1.79c.31-.51.73-.9,1.25-1.18.53-.27,1.11-.41,1.75-.41s1.21.14,1.74.41ZM11.24,42.75c-.27.28-.41.69-.41,1.23s.14.95.42,1.24c.28.29.61.43.99.43s.7-.14.97-.43c.27-.29.4-.7.4-1.24s-.14-.95-.42-1.23c-.28-.28-.6-.42-.97-.42s-.72.14-.99.42Z"/>
      <path class="cls-1" d="M21.48,41.54v-3.03h2.03v8.79h-2.03v-.96c-.49.7-1.14,1.05-1.95,1.05-.55,0-1.05-.14-1.51-.43-.46-.28-.83-.68-1.1-1.2-.27-.51-.4-1.1-.4-1.76s.13-1.24.4-1.76c.27-.51.64-.92,1.1-1.21.46-.29.97-.43,1.51-.43.85,0,1.5.31,1.95.94ZM19.33,42.54c-.23.12-.41.31-.55.55-.14.25-.21.55-.21.9s.07.66.21.9c.14.24.32.42.54.55.22.12.46.18.7.18s.47-.06.69-.18c.23-.12.41-.31.55-.55.14-.25.21-.55.21-.9s-.07-.66-.21-.9c-.14-.24-.32-.42-.54-.55-.22-.12-.45-.18-.7-.18s-.47.06-.69.18Z"/>
      <path class="cls-1" d="M31.44,44.65h-4.56c.04.29.17.53.39.72.22.19.5.28.83.28.25,0,.44-.04.57-.11.13-.08.26-.2.4-.37h2.2c-.19.67-.57,1.2-1.14,1.61-.57.41-1.25.61-2.03.61-.63,0-1.2-.14-1.7-.42-.5-.28-.9-.67-1.18-1.19-.28-.52-.42-1.12-.42-1.8s.14-1.28.42-1.79c.28-.51.67-.9,1.17-1.18.5-.27,1.07-.41,1.7-.41s1.22.13,1.73.4c.51.27.92.66,1.22,1.17.3.51.45,1.13.45,1.84,0,.23-.02.44-.05.64ZM29.37,43.38c-.03-.31-.17-.56-.4-.75-.24-.19-.53-.29-.88-.29-.3,0-.56.1-.78.29-.22.19-.36.45-.42.75h2.48Z"/>
      <path class="cls-1" d="M37.96,42.28v1.69h-5.23v-1.69h5.23Z"/>
      <path class="cls-1" d="M46.59,45.29c-.39.63-.93,1.13-1.63,1.48-.69.35-1.48.53-2.35.53h-2.93v-8.34h2.93c.88,0,1.66.17,2.35.52.69.35,1.23.84,1.62,1.47.39.63.59,1.36.59,2.17s-.2,1.53-.59,2.16ZM44.45,45.04c.44-.48.66-1.11.66-1.91s-.22-1.44-.66-1.91c-.44-.48-1.05-.71-1.83-.71h-.9v5.25h.9c.78,0,1.39-.24,1.83-.71Z"/>
      <path class="cls-1" d="M54.62,44.65h-4.56c.04.29.17.53.39.72.22.19.5.28.83.28.25,0,.44-.04.57-.11.13-.08.26-.2.4-.37h2.2c-.19.67-.57,1.2-1.14,1.61-.57.41-1.25.61-2.03.61-.63,0-1.2-.14-1.7-.42-.5-.28-.9-.67-1.18-1.19-.28-.52-.42-1.12-.42-1.8s.14-1.28.42-1.79c.28-.51.67-.9,1.17-1.18.5-.27,1.07-.41,1.7-.41s1.22.13,1.73.4c.51.27.92.66,1.22,1.17.3.51.45,1.13.45,1.84,0,.23-.02.44-.05.64ZM52.55,43.38c-.03-.31-.17-.56-.4-.75-.24-.19-.53-.29-.88-.29-.3,0-.56.1-.78.29-.22.19-.36.45-.42.75h2.48Z"/>
      <path class="cls-1" d="M58.8,45.6l1.51-4.93h2.16l-2.35,6.63h-2.64l-2.35-6.63h2.16l1.51,4.93Z"/>
      <path class="cls-1" d="M67.79,41.18c.52.39.8.92.83,1.59h-2.08c-.02-.23-.1-.39-.24-.47-.14-.08-.34-.12-.61-.12-.25,0-.45.04-.59.12s-.21.2-.21.36c0,.18.1.31.3.4.2.08.53.18.99.28.5.1.91.21,1.24.33.33.11.61.3.85.56.24.26.36.61.36,1.05,0,.41-.12.78-.36,1.09s-.57.56-1,.74c-.42.18-.9.27-1.42.27-.82,0-1.5-.18-2.04-.55-.54-.37-.83-.91-.88-1.63h2.08c.03.21.12.37.26.46.14.09.34.14.59.14.24,0,.43-.06.59-.17.15-.11.23-.25.23-.4,0-.19-.11-.33-.32-.42-.21-.09-.55-.18-1.01-.28-.5-.1-.91-.21-1.23-.32-.32-.11-.6-.29-.83-.54-.23-.25-.35-.58-.35-1,0-.38.11-.73.33-1.04.22-.31.54-.56.97-.75.43-.19.95-.28,1.56-.28.79,0,1.45.19,1.97.58Z"/>
    </g>
    <g>
      <path class="cls-1" d="M23.18,7.55c-.69-1.71-3.15-1.62-3.71.14l-8.14,25.47c-.41,1.27.54,2.58,1.88,2.58h9.67c.84,0,1.58-.53,1.86-1.32l4.08-11.61c.16-.45.15-.95-.03-1.4l-5.62-13.85Z"/>
      <path class="cls-1" d="M59.27,0h-9.67c-.84,0-1.58.54-1.86,1.34l-4.08,11.82c-.16.46-.15.97.03,1.42l5.62,14.1c.69,1.74,3.15,1.65,3.71-.14h0L61.15,2.62C61.56,1.32,60.61,0,59.27,0Z"/>
      <path class="cls-1" d="M50.67,31.88s-2.21,0-2.33-.13c-.7-.74-3.08-3.92-6.19-15.27,0,0-3.52-11.74-5.56-13.67,0,0-4.72-4.8-11.58-1.85,0,0-3.63,1.38-3.1,2.54.05.1.15.17.27.17.66,0,3.41.58,6.15,10.19,0,0,4.39,16.47,7.68,19.22,0,0,5.24,4.95,12.56.99,0,0,1.55-1.03,2.28-1.8.14-.15.03-.4-.17-.39Z"/>
    </g>
  </g>
</svg>